<?xml version="1.0" encoding="utf-8"?>
<!-- Generator: Adobe Illustrator 24.1.1, SVG Export Plug-In . SVG Version: 6.00 Build 0)  -->
<svg version="1.1" xmlns="http://www.w3.org/2000/svg" xmlns:xlink="http://www.w3.org/1999/xlink" x="0px" y="0px"
	 viewBox="0 0 1080 1920" style="enable-background:new 0 0 1080 1920;" xml:space="preserve">
<style type="text/css">
	.st0{fill:#005667;}
	.st1{fill:none;}
	.st2{fill:#FFFFFF;}
</style>
<g id="Capa_1">
	<path class="st0" d="M1038.09,1402.49c0,25.01-5.43,46.49-16.32,64.46c-10.88,17.95-25.02,32.86-42.44,44.73
		c-17.4,11.87-36.98,20.69-58.75,26.45c-21.75,5.78-43.83,8.67-66.2,8.67H225.62c-22.38,0-44.46-2.89-66.2-8.67
		c-21.78-5.76-41.35-14.58-58.75-26.45c-17.42-11.87-31.56-26.78-42.44-44.73c-10.88-17.97-16.31-39.45-16.31-64.46
		c0-26.94,6.68-50.03,20.05-69.26c13.37-19.25,30.31-34.65,50.83-46.19c-15.56-19.23-27.68-40.88-36.38-64.93
		c-8.71-24.05-13.05-49.55-13.05-76.48c0-30.79,5.59-59.64,16.79-86.58s26.58-50.5,46.16-70.71c0.96-0.99,1.94-1.9,2.9-2.86
		c-17.56-7.21-31.71-16.33-42.47-27.44c-12.44-12.81-18.65-29.97-18.65-51.46c0-24.25,9.41-46.94,28.23-68.11
		c18.8-21.13,43-34.13,72.57-38.98c-30.91-15.24-55.61-36.39-74.08-63.43c-18.49-27.02-27.71-58.57-27.71-94.62
		c0-41.58,10.41-77.8,31.24-108.64c20.82-30.83,47.53-54.75,80.13-71.74c32.57-16.99,66.35-25.48,101.28-25.48
		c22.18,0,44.36,3.3,66.52,9.88c22.18,6.59,42.67,16.11,61.49,28.6c6.71-19.4,16.29-36.73,28.73-51.99
		c12.43-15.24,26.71-27.2,42.84-35.88c16.11-8.65,32.9-12.98,50.39-12.98c3.63,0,7.04,0.24,10.3,0.64c3.27-0.4,6.68-0.64,10.31-0.64
		c17.49,0,34.27,4.33,50.39,12.98c16.13,8.68,30.41,20.63,42.84,35.88c12.44,15.26,22.02,32.59,28.73,51.99
		c18.82-12.48,39.31-22.01,61.47-28.6c22.18-6.58,44.36-9.88,66.53-9.88c34.93,0,68.71,8.49,101.28,25.48
		c32.6,16.99,59.31,40.91,80.13,71.74c20.83,30.84,31.24,67.06,31.24,108.64c0,36.05-9.22,67.59-27.71,94.62
		c-18.47,27.04-43.17,48.19-74.08,63.43c29.57,4.85,53.76,17.84,72.57,38.98c18.82,21.16,28.23,43.85,28.23,68.11
		c0,21.49-6.21,38.65-18.65,51.46c-10.75,11.11-24.91,20.23-42.47,27.44c0.96,0.96,1.94,1.87,2.9,2.86
		c19.58,20.2,34.96,43.77,46.16,70.71c11.2,26.94,16.79,55.79,16.79,86.58c0,26.94-4.35,52.43-13.05,76.48
		c-8.71,24.05-20.82,45.7-36.38,64.93c20.52,11.54,37.46,26.94,50.83,46.19C1031.42,1352.45,1038.09,1375.55,1038.09,1402.49z"/>
</g>
<g id="Capa_2">
	<g>
		<path class="st1" d="M429.69,1010.58c0,12.5-2.4,24.38-7.21,35.66c-4.8,11.3-11.41,21.02-19.8,29.18
			c-8.41,8.16-18.13,14.66-29.18,19.45c-11.05,4.8-23.05,7.21-36.02,7.21c-12.5,0-24.38-2.4-35.66-7.21
			c-11.3-4.79-21.02-11.28-29.18-19.45c-8.16-8.16-14.66-17.89-19.45-29.18c-4.8-11.28-7.21-23.16-7.21-35.66
			c0-12.48,2.4-24.37,7.21-35.66c4.79-11.28,11.28-21.13,19.45-29.54c8.16-8.39,17.89-15,29.18-19.8
			c11.28-4.8,23.16-7.21,35.66-7.21c12.97,0,24.97,2.4,36.02,7.21c11.05,4.8,20.78,11.41,29.18,19.8c8.39,8.41,15,18.26,19.8,29.54
			C427.29,986.21,429.69,998.09,429.69,1010.58z"/>
		<path class="st1" d="M427.7,635.36c0,20.23-3.25,38.41-9.72,54.49c-6.51,16.1-16.1,28.81-28.81,38.15
			c-12.73,9.35-28.68,14.01-47.89,14.01s-35.69-5.3-49.45-15.96c-13.76-10.62-24.27-25.42-31.53-44.38
			c-7.28-18.93-10.9-40.87-10.9-65.79c0-31.14,7.65-57.22,22.96-78.24c15.3-21.02,36.98-31.54,65.02-31.54
			c20.23,0,36.98,5.98,50.22,17.92c13.24,11.94,23.22,27.77,29.97,47.49C424.33,591.23,427.7,612.52,427.7,635.36z"/>
		<path class="st1" d="M830.59,615.88c0,24.92-3.62,46.86-10.9,65.79c-7.26,18.96-17.77,33.76-31.53,44.38
			c-13.76,10.65-30.24,15.96-49.45,15.96c-19.2,0-35.16-4.66-47.89-14.01c-12.71-9.34-22.31-22.05-28.81-38.15
			c-6.48-16.09-9.72-34.26-9.72-54.49c0-22.84,3.37-44.13,10.12-63.86c6.75-19.72,16.73-35.55,29.97-47.49s29.97-17.92,50.22-17.92
			c28.03,0,49.72,10.52,65.02,31.54C822.94,558.66,830.59,584.74,830.59,615.88z"/>
		<path class="st1" d="M834.02,1010.58c0,12.5-2.4,24.38-7.21,35.66c-4.8,11.3-11.28,21.02-19.46,29.18
			c-8.15,8.16-17.89,14.66-29.17,19.45c-11.28,4.8-23.16,7.21-35.66,7.21c-12.97,0-24.97-2.4-36.02-7.21
			c-11.05-4.79-20.78-11.28-29.18-19.45c-8.39-8.16-15-17.89-19.8-29.18c-4.8-11.28-7.21-23.16-7.21-35.66
			c0-12.48,2.4-24.37,7.21-35.66c4.8-11.28,11.41-21.13,19.8-29.54c8.41-8.39,18.13-15,29.18-19.8c11.05-4.8,23.05-7.21,36.02-7.21
			c12.5,0,24.38,2.4,35.66,7.21c11.28,4.8,21.02,11.41,29.17,19.8c8.18,8.41,14.66,18.26,19.46,29.54
			C831.62,986.21,834.02,998.09,834.02,1010.58z"/>
		<path class="st1" d="M553.05,844.15v74.21h50.43c-8.65,13.46-15.37,27.98-20.18,43.58c-4.79,15.61-7.21,31.83-7.21,48.63
			c0,22.11,4.1,43,12.28,62.69c8.19,19.69,19.27,36.86,33.23,51.5c13.96,14.66,30.57,26.54,49.83,35.66
			c19.27,9.14,39.74,14.41,61.41,15.86h88.11c7.72,2.4,14.58,5.76,20.59,10.08c6.02,4.32,9.02,9.85,9.02,16.57
			c0,8.16-3.49,14.4-10.47,18.73c-6.98,4.32-14.56,7.68-22.74,10.08s-19.49,4.08-33.93,5.05H602.21
			c-8.65,0.47-17.92,2.76-27.78,6.83s-19.13,10.45-27.8,19.1c-2.33,2.32-4.53,4.82-6.63,7.49c-2.09-2.67-4.29-5.18-6.62-7.49
			c-8.67-8.65-17.93-15.03-27.8-19.1c-9.87-4.08-19.13-6.36-27.8-6.83H296.55c-14.44-0.97-25.75-2.65-33.93-5.05
			c-8.19-2.4-15.76-5.76-22.74-10.08c-6.99-4.33-10.48-10.57-10.48-18.73c0-6.72,3.02-12.25,9.04-16.57
			c6.01-4.32,12.87-7.68,20.59-10.08h88.11c21.68-1.44,42.14-6.72,61.41-15.86c19.26-9.12,35.88-21.01,49.83-35.66
			c13.96-14.64,25.04-31.82,33.23-51.5c8.18-19.69,12.28-40.58,12.28-62.69c0-16.8-2.42-33.02-7.21-48.63
			c-4.8-15.6-11.52-30.13-20.18-43.58h50.43v-74.21h-188.9c-29.63-1.56-53.74-3.8-72.3-6.75c-21.29-3.37-34-11.3-38.15-23.75
			c-3.63-12.97,0.51-24.14,12.45-33.47c11.94-9.35,27.51-14.01,46.71-14.01c10.38,0,19.2,0.64,26.48,1.94
			c7.26,1.3,15.83,1.94,25.7,1.94c29.06,0,56.05-6.35,80.97-19.07c24.91-12.71,45.03-30.49,60.34-53.33
			c15.3-22.84,22.96-48.79,22.96-77.87c0-18.16-3.77-35.29-11.28-51.38c-7.54-16.09-17.53-29.84-29.98-41.27
			c2.59-11.94,7.52-22.98,14.8-33.1c7.26-10.11,17.39-16.21,30.36-18.29c0.47,2.36,1.16,4.58,2.02,6.69
			c0.21,0.63,0.41,1.23,0.67,1.87c2.07,5.19,5.58,9.61,10.51,13.24c4.12,3.02,9.41,4.76,15.84,5.28c0.23,0.01,0.44,0.04,0.67,0.06
			c0.64,0.04,1.3,0.06,1.96,0.07c0.36,0.01,0.69,0.04,1.03,0.04c0.06,0,0.11-0.01,0.17-0.01c0.07,0,0.11,0.01,0.19,0.01
			c0.34,0,0.67-0.03,1.02-0.04c0.67-0.01,1.33-0.03,1.97-0.07c0.23-0.01,0.44-0.04,0.67-0.06c6.43-0.51,11.73-2.26,15.84-5.28
			c4.92-3.63,8.42-8.05,10.51-13.24c0.26-0.64,0.46-1.24,0.67-1.87c0.86-2.12,1.54-4.33,2.02-6.69
			c12.97,2.07,23.09,8.18,30.36,18.29c7.28,10.12,12.21,21.16,14.8,33.1c-12.45,11.42-22.45,25.18-29.98,41.27
			c-7.51,16.09-11.28,33.22-11.28,51.38c0,29.08,7.66,55.04,22.96,77.87c15.31,22.85,35.43,40.62,60.34,53.33
			c24.92,12.73,51.92,19.07,80.97,19.07c9.87,0,18.43-0.64,25.7-1.94c7.28-1.3,16.1-1.94,26.48-1.94c19.2,0,34.77,4.66,46.71,14.01
			c11.94,9.34,16.09,20.5,12.45,33.47c-4.15,12.45-16.86,20.38-38.15,23.75c-18.56,2.95-42.67,5.19-72.3,6.75H553.05z"/>
		<path d="M539.99,502.98c-0.06,0-0.11,0.01-0.17,0.01c-0.34,0-0.67-0.03-1.03-0.04C539.21,502.97,539.59,502.98,539.99,502.98z"/>
		<path d="M570.86,482.43c-0.21,0.63-0.41,1.23-0.67,1.87c-2.09,5.19-5.59,9.61-10.51,13.24c-4.12,3.02-9.41,4.76-15.84,5.28
			c7.19-0.64,13.24-3.16,18.13-7.62C565.96,491.58,568.91,487.32,570.86,482.43z"/>
		<path d="M536.16,502.82c-6.43-0.51-11.73-2.26-15.84-5.28c-4.93-3.63-8.44-8.05-10.51-13.24c-0.26-0.64-0.46-1.24-0.67-1.87
			c1.96,4.89,4.9,9.15,8.89,12.77C522.92,499.66,528.97,502.18,536.16,502.82z"/>
		<path d="M541.19,502.95c-0.34,0.01-0.67,0.04-1.02,0.04c-0.07,0-0.11-0.01-0.19-0.01C540.41,502.98,540.79,502.97,541.19,502.95z"
			/>
		<path class="st2" d="M912.18,1390.97c8.41-13.46,12.61-29.3,12.61-47.54h-74.21c0,7.84-3.49,14.1-10.47,18.76
			c-6.98,4.66-14.68,8.09-23.12,10.3c-8.42,2.22-19.86,4.05-34.32,5.52H604.95c-9.14-0.97-13.73-11.9-13.73-32.77
			c0-7.29,0.61-13.23,1.8-17.83c1.2-4.63,2.65-8.15,4.32-10.57c1.7-2.45,3.25-4.02,4.69-4.73c1.44-0.73,2.4-1.1,2.89-1.1h177.94
			c17.3,0,34.35-2.16,51.16-6.48c16.82-4.32,31.94-10.92,45.38-19.82c13.46-8.89,24.38-20.06,32.77-33.49
			c8.41-13.46,12.61-29.54,12.61-48.27c0-20.18-5.15-37.46-15.49-51.88c-10.32-14.41-23.42-25.94-39.26-34.57
			c12.01-14.41,21.38-30.63,28.1-48.63c6.73-18.02,10.08-37.11,10.08-57.28c0-23.05-4.32-44.67-12.97-64.83
			c-8.64-20.18-20.53-37.83-35.66-52.96c-0.73-0.73-1.49-1.42-2.23-2.13c13.56-5.39,24.49-12.24,32.8-20.55
			c9.61-9.59,14.4-22.45,14.4-38.54c0-18.17-7.26-35.16-21.79-51c-14.53-15.83-33.22-25.57-56.07-29.2
			c23.88-11.41,42.95-27.25,57.22-47.5c14.28-20.23,21.42-43.85,21.42-70.85c0-31.14-8.05-58.25-24.14-81.36
			c-16.09-23.09-36.72-40.99-61.9-53.72c-25.18-12.71-51.26-19.07-78.26-19.07c-17.13,0-34.26,2.46-51.39,7.39
			c-17.12,4.93-32.94,12.07-47.49,21.41c-5.19-14.53-12.58-27.5-22.19-38.92c-9.59-11.41-20.63-20.36-33.09-26.87
			c-12.47-6.48-25.42-9.72-38.94-9.72c-2.8,0-5.43,0.19-7.96,0.49c-2.52-0.3-5.15-0.49-7.95-0.49c-13.51,0-26.48,3.25-38.94,9.72
			c-12.45,6.51-23.49,15.46-33.09,26.87c-9.61,11.42-17.02,24.39-22.19,38.92c-14.54-9.34-30.37-16.47-47.5-21.41
			c-17.12-4.93-34.25-7.39-51.38-7.39c-27,0-53.08,6.36-78.26,19.07c-25.18,12.73-45.81,30.63-61.9,53.72
			c-16.09,23.11-24.14,50.22-24.14,81.36c0,27,7.14,50.62,21.42,70.85c14.27,20.25,33.34,36.09,57.22,47.5
			c-22.85,3.63-41.54,13.37-56.07,29.2c-14.53,15.84-21.79,32.83-21.79,51c0,16.09,4.79,28.94,14.4,38.54
			c8.31,8.31,19.25,15.16,32.8,20.55c-0.74,0.71-1.5,1.4-2.23,2.13c-15.13,15.13-27.02,32.79-35.66,52.96
			c-8.65,20.16-12.97,41.78-12.97,64.83c0,20.18,3.35,39.26,10.08,57.28c6.72,18,16.09,34.22,28.1,48.63
			c-15.84,8.64-28.94,20.16-39.26,34.57c-10.34,14.41-15.49,31.7-15.49,51.88c0,18.73,4.19,34.82,12.61,48.27
			c8.39,13.43,19.32,24.59,32.77,33.49c13.44,8.89,28.57,15.5,45.38,19.82c16.82,4.32,33.86,6.48,51.16,6.48h177.94
			c0.49,0,1.44,0.37,2.89,1.1c1.44,0.71,2.99,2.29,4.68,4.73c1.69,2.42,3.13,5.93,4.33,10.57c1.19,4.6,1.8,10.54,1.8,17.83
			c0,20.88-4.59,31.8-13.73,32.77H297.33c-14.46-1.47-25.91-3.3-34.32-5.52c-8.44-2.2-16.14-5.63-23.12-10.3
			c-6.99-4.66-10.48-10.92-10.48-18.76h-74.2c0,18.25,4.19,34.09,12.61,47.54c5.76,9.22,12.74,17.42,20.89,24.61
			c-8.15,7.21-15.13,15.39-20.89,24.61c-8.42,13.46-12.61,29.31-12.61,47.56h74.2c0-7.85,3.49-14.11,10.48-18.77
			c6.98-4.66,14.68-8.09,23.12-10.3c8.41-2.2,19.86-4.05,34.32-5.52h177.72c9.14,0.97,13.73,11.9,13.73,32.77
			c0,0.66-0.01,1.29-0.03,1.93h102.51c-0.01-0.64-0.03-1.27-0.03-1.93c0-20.88,4.59-31.8,13.73-32.77h177.72
			c14.46,1.47,25.9,3.32,34.32,5.52c8.44,2.2,16.14,5.63,23.12,10.3c6.98,4.66,10.47,10.92,10.47,18.77h74.21
			c0-18.25-4.2-34.1-12.61-47.56c-5.76-9.22-12.74-17.4-20.89-24.61C899.44,1408.38,906.42,1400.19,912.18,1390.97z M662.42,571.5
			c6.75-19.72,16.73-35.55,29.97-47.49s29.97-17.92,50.22-17.92c28.03,0,49.72,10.52,65.02,31.54
			c15.31,21.02,22.96,47.1,22.96,78.24c0,24.92-3.62,46.86-10.9,65.79c-7.26,18.96-17.77,33.76-31.53,44.38
			c-13.76,10.65-30.24,15.96-49.45,15.96c-19.2,0-35.16-4.66-47.89-14.01c-12.71-9.34-22.31-22.05-28.81-38.15
			c-6.48-16.09-9.72-34.26-9.72-54.49C652.3,612.52,655.67,591.23,662.42,571.5z M249.41,615.88c0-31.14,7.65-57.22,22.96-78.24
			c15.3-21.02,36.98-31.54,65.02-31.54c20.23,0,36.98,5.98,50.22,17.92c13.24,11.94,23.22,27.77,29.97,47.49
			c6.75,19.73,10.12,41.02,10.12,63.86c0,20.23-3.25,38.41-9.72,54.49c-6.51,16.1-16.1,28.81-28.81,38.15
			c-12.73,9.35-28.68,14.01-47.89,14.01s-35.69-5.3-49.45-15.96c-13.76-10.62-24.27-25.42-31.53-44.38
			C253.03,662.74,249.41,640.81,249.41,615.88z M574.42,1243.63c-9.87,4.08-19.13,10.45-27.8,19.1c-2.33,2.32-4.53,4.82-6.63,7.49
			c-2.09-2.67-4.29-5.18-6.62-7.49c-8.67-8.65-17.93-15.03-27.8-19.1c-9.87-4.08-19.13-6.36-27.8-6.83H296.55
			c-14.44-0.97-25.75-2.65-33.93-5.05c-8.19-2.4-15.76-5.76-22.74-10.08c-6.99-4.33-10.48-10.57-10.48-18.73
			c0-6.72,3.02-12.25,9.04-16.57c6.01-4.32,12.87-7.68,20.59-10.08h88.11c21.68-1.44,42.14-6.72,61.41-15.86
			c19.26-9.12,35.88-21.01,49.83-35.66c13.96-14.64,25.04-31.82,33.23-51.5c8.18-19.69,12.28-40.58,12.28-62.69
			c0-16.8-2.42-33.02-7.21-48.63c-4.8-15.6-11.52-30.13-20.18-43.58h50.43v-74.21h-188.9c-29.63-1.56-53.74-3.8-72.3-6.75
			c-21.29-3.37-34-11.3-38.15-23.75c-3.63-12.97,0.51-24.14,12.45-33.47c11.94-9.35,27.51-14.01,46.71-14.01
			c10.38,0,19.2,0.64,26.48,1.94c7.26,1.3,15.83,1.94,25.7,1.94c29.06,0,56.05-6.35,80.97-19.07
			c24.91-12.71,45.03-30.49,60.34-53.33c15.3-22.84,22.96-48.79,22.96-77.87c0-18.16-3.77-35.29-11.28-51.38
			c-7.54-16.09-17.53-29.84-29.98-41.27c2.59-11.94,7.52-22.98,14.8-33.1c7.26-10.11,17.39-16.21,30.36-18.29
			c0.47,2.36,1.16,4.58,2.02,6.69c1.96,4.89,4.9,9.15,8.89,12.77c4.89,4.46,10.94,6.98,18.13,7.62c0.23,0.01,0.44,0.04,0.67,0.06
			c0.64,0.04,1.3,0.06,1.96,0.07c0.41,0.01,0.8,0.03,1.2,0.03c0.41,0,0.8-0.01,1.2-0.03c0.67-0.01,1.33-0.03,1.97-0.07
			c0.23-0.01,0.44-0.04,0.67-0.06c7.19-0.64,13.24-3.16,18.13-7.62c3.99-3.62,6.93-7.88,8.89-12.77c0.86-2.12,1.54-4.33,2.02-6.69
			c12.97,2.07,23.09,8.18,30.36,18.29c7.28,10.12,12.21,21.16,14.8,33.1c-12.45,11.42-22.45,25.18-29.98,41.27
			c-7.51,16.09-11.28,33.22-11.28,51.38c0,29.08,7.66,55.04,22.96,77.87c15.31,22.85,35.43,40.62,60.34,53.33
			c24.92,12.73,51.92,19.07,80.97,19.07c9.87,0,18.43-0.64,25.7-1.94c7.28-1.3,16.1-1.94,26.48-1.94c19.2,0,34.77,4.66,46.71,14.01
			c11.94,9.34,16.09,20.5,12.45,33.47c-4.15,12.45-16.86,20.38-38.15,23.75c-18.56,2.95-42.67,5.19-72.3,6.75h-188.9v74.21h50.43
			c-8.65,13.46-15.37,27.98-20.18,43.58c-4.79,15.61-7.21,31.83-7.21,48.63c0,22.11,4.1,43,12.28,62.69
			c8.19,19.69,19.27,36.86,33.23,51.5c13.96,14.66,30.57,26.54,49.83,35.66c19.27,9.14,39.74,14.41,61.41,15.86h88.11
			c7.72,2.4,14.58,5.76,20.59,10.08c6.02,4.32,9.02,9.85,9.02,16.57c0,8.16-3.49,14.4-10.47,18.73
			c-6.98,4.32-14.56,7.68-22.74,10.08s-19.49,4.08-33.93,5.05H602.21C593.56,1237.27,584.29,1239.56,574.42,1243.63z
			 M245.98,1010.58c0-12.48,2.4-24.37,7.21-35.66c4.79-11.28,11.28-21.13,19.45-29.54c8.16-8.39,17.89-15,29.18-19.8
			c11.28-4.8,23.16-7.21,35.66-7.21c12.97,0,24.97,2.4,36.02,7.21c11.05,4.8,20.78,11.41,29.18,19.8c8.39,8.41,15,18.26,19.8,29.54
			c4.8,11.3,7.21,23.18,7.21,35.66c0,12.5-2.4,24.38-7.21,35.66c-4.8,11.3-11.41,21.02-19.8,29.18
			c-8.41,8.16-18.13,14.66-29.18,19.45c-11.05,4.8-23.05,7.21-36.02,7.21c-12.5,0-24.38-2.4-35.66-7.21
			c-11.3-4.79-21.02-11.28-29.18-19.45c-8.16-8.16-14.66-17.89-19.45-29.18C248.38,1034.95,245.98,1023.07,245.98,1010.58z
			 M834.02,1010.58c0,12.5-2.4,24.38-7.21,35.66c-4.8,11.3-11.28,21.02-19.46,29.18c-8.15,8.16-17.89,14.66-29.17,19.45
			c-11.28,4.8-23.16,7.21-35.66,7.21c-12.97,0-24.97-2.4-36.02-7.21c-11.05-4.79-20.78-11.28-29.18-19.45
			c-8.39-8.16-15-17.89-19.8-29.18c-4.8-11.28-7.21-23.16-7.21-35.66c0-12.48,2.4-24.37,7.21-35.66
			c4.8-11.28,11.41-21.13,19.8-29.54c8.41-8.39,18.13-15,29.18-19.8c11.05-4.8,23.05-7.21,36.02-7.21c12.5,0,24.38,2.4,35.66,7.21
			c11.28,4.8,21.02,11.41,29.17,19.8c8.18,8.41,14.66,18.26,19.46,29.54C831.62,986.21,834.02,998.09,834.02,1010.58z"/>
	</g>
</g>
</svg>
